# xmcd CD database file
#
# Track frame offsets:
#	150
#	12302
#	25640
#	35105
#	47147
#	59770
#	76097
#	88445
#	102182
#	115570
#	128235
#	141002
#	152280
#	163577
#	177930
#	189370
#
# Disc length: 2743 seconds
#
# Revision: 0
# Processed by: cddbd v1.4PL0 Copyright (c) Steve Scherf et al.
# Submitted via: CDex 1.50beta9
#
DISCID=c90ab510
DTITLE=Brendan Shine - If You Ever Go Over To Ireland
DYEAR=1900
DGENRE=Country
TTITLE0=Ballinomona Hat
TTITLE1=Where My Eileen Is Waiting
TTITLE2=If You Ever Go Over To Ireland
TTITLE3=I'll Settle For Old Ireland
TTITLE4=Woodlands Of Loughglynn
TTITLE5=Kilfenora Jigs
TTITLE6=Forty Miles From Poplar Bluff
TTITLE7=Roving Galway Boy
TTITLE8=Ballinasloe Fair
TTITLE9=Coastline Of Mayo
TTITLE10=Oul Ballymoe
TTITLE11=Abbeyshrule
TTITLE12=Athlone
TTITLE13=Bonnish Jenny
TTITLE14=Where The Three Counties Meet
TTITLE15=Spancil Hill
EXTD=
EXTT0=
EXTT1=
EXTT2=
EXTT3=
EXTT4=
EXTT5=
EXTT6=
EXTT7=
EXTT8=
EXTT9=
EXTT10=
EXTT11=
EXTT12=
EXTT13=
EXTT14=
EXTT15=
PLAYORDER=
